<?xml version="1.0" encoding="utf-8"?>
<!-- Generator: Adobe Illustrator 27.0.0, SVG Export Plug-In . SVG Version: 6.00 Build 0)  -->
<svg version="1.1" id="Layer_1" xmlns="http://www.w3.org/2000/svg" xmlns:xlink="http://www.w3.org/1999/xlink" x="0px" y="0px"
	 viewBox="0 0 216 233" style="enable-background:new 0 0 216 233;" xml:space="preserve">
<g>
	<path d="M88.1,203c-14.5-1.4-28.6-5.7-39.5-17.2c-2.8-2.9-4.8-4.9-9.1-1.5c-4.9,3.8-11.1,1.6-13.7-3.6c-2.7-5.2-0.8-10.6,5.3-13.1
		c3.4-1.4,3.8-3,2.9-6.1C26,136.3,37,107,63.4,93.3c5.2-2.7,10.1-5.7,15.1-8.7c2.2-1.3,3.9-1.4,6.3-0.1c4.8,2.6,10.7-0.4,10.9-5.8
		c0.2-3.9,2.3-5.4,5.1-7c28.1-16.1,56.2-32.3,84.3-48.4c9-5.2,11.9-3.9,14.1,6.3c4.3,19.8,4.4,15.3-11.3,24.9
		c-11.7,7.2-23.7,13.7-35.7,20.5c-16.5,9.3-21.6,25.5-12.7,42.3c15.9,30.2,3.3,63.3-22,77.8C109.5,199.6,97.4,202.9,88.1,203z
		 M88.7,176.9c17.8,0.1,32.1-13.6,32.4-30.9c0.3-18.2-14.3-33.3-32.2-33.2c-17.6,0-31.9,14.4-31.9,32.1
		C56.9,163,70.7,176.8,88.7,176.9z"/>
	<path d="M63.9,144.8c0.1-14.4,11.1-25.4,25.2-25.2c14,0.2,25.4,11.7,25.3,25.4c-0.1,13.6-11.8,25.5-24.9,25.3
		C74.9,170.2,63.9,159.2,63.9,144.8z"/>
</g>
</svg>
