<?xml version="1.0" encoding="utf-8"?>
<!-- Generator: Adobe Illustrator 27.0.0, SVG Export Plug-In . SVG Version: 6.00 Build 0)  -->
<svg version="1.1" id="Layer_1" xmlns="http://www.w3.org/2000/svg" xmlns:xlink="http://www.w3.org/1999/xlink" x="0px" y="0px"
	 viewBox="0 0 149.1 75.8" style="enable-background:new 0 0 149.1 75.8;" xml:space="preserve">
<style type="text/css">
	.st0{fill:#E32E32;}
</style>
<g>
	<path class="st0" d="M45.2,58.7c-4.9-3.5-9.1-8-10.7-14.4c-0.4-1.6-0.7-2.8-3-2.4c-2.6,0.4-4.3-1.7-4.2-4.1c0.1-2.4,1.9-4,4.6-3.6
		c1.5,0.2,2-0.3,2.3-1.6C36.6,21.7,46.6,13.4,59,14c2.4,0.1,4.8,0,7.3,0c1.1,0,1.7,0.3,2.3,1.3c1.2,1.9,3.9,2.1,5.1,0.2
		c0.9-1.4,1.9-1.5,3.3-1.5c13.5,0,27,0,40.5,0c4.3,0,5.1,1.1,3.8,5.2c-2.5,8-1.6,6.4-9.2,6.7c-5.7,0.2-11.4,0-17.1,0
		c-7.9-0.1-13.1,4.7-13.3,12.6C81,52.6,69.6,61.9,57.4,61.9C53.6,61.9,48.6,60.6,45.2,58.7z M50.8,49.4c6.4,3.7,14.4,1.7,18.1-4.4
		c3.9-6.5,1.7-15-4.8-18.7c-6.4-3.6-14.5-1.4-18.2,5C42.2,37.8,44.3,45.6,50.8,49.4z"/>
	<path class="st0" d="M48.5,32.7c3-5.2,9.3-6.9,14.3-3.9c5,3,6.8,9.5,3.9,14.4c-2.9,4.9-9.5,6.8-14.2,4
		C47.2,44.1,45.5,37.9,48.5,32.7z"/>
</g>
</svg>
