<?xml version="1.0" encoding="utf-8"?>
<!-- Generator: Adobe Illustrator 27.0.0, SVG Export Plug-In . SVG Version: 6.00 Build 0)  -->
<svg version="1.1" id="Layer_1" xmlns="http://www.w3.org/2000/svg" xmlns:xlink="http://www.w3.org/1999/xlink" x="0px" y="0px"
	 viewBox="0 0 149 124.4" style="enable-background:new 0 0 149 124.4;" xml:space="preserve">
<style type="text/css">
	.st0{fill:#FFFFFF;}
	.st1{fill:#E32E32;}
</style>
<rect class="st0" width="149" height="124.4"/>
<g>
	<path class="st1" d="M46.8,83.8c-4.9-3.5-9.1-8-10.7-14.4c-0.4-1.6-0.7-2.8-3-2.4c-2.6,0.4-4.3-1.7-4.2-4.1c0.1-2.4,1.9-4,4.6-3.6
		c1.5,0.2,2-0.3,2.3-1.6c2.4-10.9,12.4-19.2,24.8-18.6c2.4,0.1,4.8,0,7.3,0c1.1,0,1.7,0.3,2.3,1.3c1.2,1.9,3.9,2.1,5.1,0.2
		c0.9-1.4,1.9-1.5,3.3-1.5c13.5,0,27,0,40.5,0c4.3,0,5.1,1.1,3.8,5.2c-2.5,8-1.6,6.4-9.2,6.7c-5.7,0.2-11.4,0-17.1,0
		c-7.9-0.1-13.1,4.7-13.3,12.6C82.6,77.7,71.2,87,59,87C55.2,87,50.2,85.7,46.8,83.8z M52.4,74.5c6.4,3.7,14.4,1.7,18.1-4.4
		c3.9-6.5,1.7-15-4.8-18.7c-6.4-3.6-14.5-1.4-18.2,5C43.8,62.9,45.9,70.7,52.4,74.5z"/>
	<path class="st1" d="M50.1,57.8c3-5.2,9.3-6.9,14.3-3.9s6.8,9.5,3.9,14.4c-2.9,4.9-9.5,6.8-14.2,4C48.8,69.2,47.1,63,50.1,57.8z"/>
</g>
</svg>
