<?xml version="1.0" encoding="utf-8"?>
<!-- Generator: Adobe Illustrator 27.0.0, SVG Export Plug-In . SVG Version: 6.00 Build 0)  -->
<svg version="1.1" id="Layer_1" xmlns="http://www.w3.org/2000/svg" xmlns:xlink="http://www.w3.org/1999/xlink" x="0px" y="0px"
	 viewBox="0 0 1200 792" style="enable-background:new 0 0 1200 792;" xml:space="preserve">
<g>
	<path d="M177.66,443.88c0-1.69,0.33-3.27,0.98-4.74c0.65-1.46,1.53-2.73,2.64-3.81c1.11-1.07,2.39-1.94,3.86-2.59
		c1.46-0.65,3.04-0.98,4.74-0.98c1.69,0,3.27,0.33,4.74,0.98c1.46,0.65,2.73,1.51,3.81,2.59s1.94,2.34,2.59,3.81
		c0.65,1.46,0.98,3.04,0.98,4.74c0,1.63-0.33,3.17-0.98,4.64c-0.65,1.46-1.51,2.75-2.59,3.86c-1.07,1.11-2.34,1.97-3.81,2.59
		c-1.46,0.62-3.04,0.93-4.74,0.93c-1.69,0-3.27-0.31-4.74-0.93c-1.46-0.62-2.75-1.48-3.86-2.59c-1.11-1.11-1.99-2.39-2.64-3.86
		C177.99,447.06,177.66,445.51,177.66,443.88z M177.86,347.99c0-1.69,0.31-3.25,0.93-4.69c0.62-1.43,1.48-2.69,2.59-3.76
		c1.11-1.07,2.39-1.92,3.86-2.54c1.46-0.62,3.01-0.93,4.64-0.93c1.69,0,3.27,0.31,4.74,0.93c1.46,0.62,2.75,1.46,3.86,2.54
		c1.11,1.07,1.99,2.33,2.64,3.76c0.65,1.43,0.98,3,0.98,4.69c0,1.69-0.33,3.27-0.98,4.74c-0.65,1.46-1.53,2.75-2.64,3.86
		c-1.11,1.11-2.39,1.99-3.86,2.64c-1.46,0.65-3.04,0.98-4.74,0.98c-1.63,0-3.17-0.33-4.64-0.98c-1.46-0.65-2.75-1.53-3.86-2.64
		c-1.11-1.11-1.97-2.39-2.59-3.86C178.17,351.26,177.86,349.68,177.86,347.99z"/>
	<path d="M314.58,347.99c0-1.69,0.31-3.25,0.93-4.69c0.62-1.43,1.48-2.69,2.59-3.76c1.11-1.07,2.39-1.92,3.86-2.54
		c1.46-0.62,3.01-0.93,4.64-0.93c1.69,0,3.27,0.31,4.74,0.93c1.46,0.62,2.75,1.46,3.86,2.54c1.11,1.07,1.99,2.33,2.64,3.76
		c0.65,1.43,0.98,3,0.98,4.69c0,1.69-0.33,3.27-0.98,4.74c-0.65,1.46-1.53,2.75-2.64,3.86c-1.11,1.11-2.39,1.99-3.86,2.64
		c-1.46,0.65-3.04,0.98-4.74,0.98c-1.63,0-3.17-0.33-4.64-0.98c-1.46-0.65-2.75-1.53-3.86-2.64c-1.11-1.11-1.97-2.39-2.59-3.86
		C314.89,351.26,314.58,349.68,314.58,347.99z"/>
	<path d="M451.1,443.88c0-1.69,0.33-3.27,0.98-4.74c0.65-1.46,1.53-2.73,2.64-3.81c1.11-1.07,2.39-1.94,3.86-2.59
		c1.46-0.65,3.04-0.98,4.74-0.98c1.69,0,3.27,0.33,4.74,0.98c1.46,0.65,2.73,1.51,3.81,2.59s1.94,2.34,2.59,3.81
		c0.65,1.46,0.98,3.04,0.98,4.74c0,1.63-0.33,3.17-0.98,4.64c-0.65,1.46-1.51,2.75-2.59,3.86c-1.07,1.11-2.34,1.97-3.81,2.59
		c-1.46,0.62-3.04,0.93-4.74,0.93c-1.69,0-3.27-0.31-4.74-0.93c-1.46-0.62-2.75-1.48-3.86-2.59c-1.11-1.11-1.99-2.39-2.64-3.86
		C451.43,447.06,451.1,445.51,451.1,443.88z M451.3,396.03c0-1.69,0.31-3.27,0.93-4.74c0.62-1.46,1.48-2.73,2.59-3.81
		c1.11-1.07,2.39-1.92,3.86-2.54c1.46-0.62,3.01-0.93,4.64-0.93c1.69,0,3.27,0.31,4.74,0.93c1.46,0.62,2.75,1.46,3.86,2.54
		c1.11,1.07,1.99,2.34,2.64,3.81c0.65,1.46,0.98,3.04,0.98,4.74c0,1.69-0.33,3.27-0.98,4.74c-0.65,1.46-1.53,2.75-2.64,3.86
		c-1.11,1.11-2.39,1.97-3.86,2.59c-1.46,0.62-3.04,0.93-4.74,0.93c-1.63,0-3.17-0.31-4.64-0.93c-1.46-0.62-2.75-1.48-3.86-2.59
		c-1.11-1.11-1.97-2.39-2.59-3.86C451.6,399.3,451.3,397.73,451.3,396.03z M498.37,395.74c0-1.69,0.33-3.27,0.98-4.74
		c0.65-1.46,1.53-2.73,2.64-3.81c1.11-1.07,2.41-1.92,3.91-2.54c1.5-0.62,3.06-0.93,4.69-0.93c1.69,0,3.27,0.31,4.74,0.93
		c1.46,0.62,2.73,1.46,3.81,2.54s1.94,2.34,2.59,3.81c0.65,1.46,0.98,3.04,0.98,4.74c0,1.69-0.33,3.27-0.98,4.74
		c-0.65,1.46-1.51,2.73-2.59,3.81s-2.34,1.92-3.81,2.54c-1.46,0.62-3.04,0.93-4.74,0.93c-1.63,0-3.19-0.31-4.69-0.93
		c-1.5-0.62-2.8-1.46-3.91-2.54c-1.11-1.07-1.99-2.34-2.64-3.81C498.69,399.01,498.37,397.43,498.37,395.74z M498.56,347.99
		c0-1.69,0.33-3.25,0.98-4.69c0.65-1.43,1.51-2.69,2.59-3.76s2.36-1.92,3.86-2.54c1.5-0.62,3.06-0.93,4.69-0.93
		c1.69,0,3.29,0.31,4.79,0.93c1.5,0.62,2.78,1.46,3.86,2.54s1.92,2.33,2.54,3.76c0.62,1.43,0.93,3,0.93,4.69
		c0,1.69-0.31,3.27-0.93,4.74c-0.62,1.46-1.46,2.75-2.54,3.86c-1.07,1.11-2.36,1.99-3.86,2.64c-1.5,0.65-3.09,0.98-4.79,0.98
		c-1.63,0-3.19-0.33-4.69-0.98c-1.5-0.65-2.78-1.53-3.86-2.64c-1.07-1.11-1.94-2.39-2.59-3.86
		C498.89,351.26,498.56,349.68,498.56,347.99z"/>
	<path d="M588.01,347.99c0-1.69,0.31-3.25,0.93-4.69c0.62-1.43,1.48-2.69,2.59-3.76c1.11-1.07,2.39-1.92,3.86-2.54
		c1.46-0.62,3.01-0.93,4.64-0.93c1.69,0,3.27,0.31,4.74,0.93c1.46,0.62,2.75,1.46,3.86,2.54c1.11,1.07,1.99,2.33,2.64,3.76
		c0.65,1.43,0.98,3,0.98,4.69c0,1.69-0.33,3.27-0.98,4.74c-0.65,1.46-1.53,2.75-2.64,3.86c-1.11,1.11-2.39,1.99-3.86,2.64
		c-1.46,0.65-3.04,0.98-4.74,0.98c-1.63,0-3.17-0.33-4.64-0.98c-1.46-0.65-2.75-1.53-3.86-2.64c-1.11-1.11-1.97-2.39-2.59-3.86
		C588.32,351.26,588.01,349.68,588.01,347.99z"/>
	<path d="M724.54,443.88c0-1.69,0.33-3.27,0.98-4.74c0.65-1.46,1.53-2.73,2.64-3.81c1.11-1.07,2.39-1.94,3.86-2.59
		c1.46-0.65,3.04-0.98,4.74-0.98c1.69,0,3.27,0.33,4.74,0.98c1.46,0.65,2.73,1.51,3.81,2.59s1.94,2.34,2.59,3.81
		c0.65,1.46,0.98,3.04,0.98,4.74c0,1.63-0.33,3.17-0.98,4.64c-0.65,1.46-1.51,2.75-2.59,3.86c-1.07,1.11-2.34,1.97-3.81,2.59
		c-1.46,0.62-3.04,0.93-4.74,0.93c-1.69,0-3.27-0.31-4.74-0.93c-1.46-0.62-2.75-1.48-3.86-2.59c-1.11-1.11-1.99-2.39-2.64-3.86
		C724.86,447.06,724.54,445.51,724.54,443.88z M724.73,347.99c0-1.69,0.31-3.25,0.93-4.69c0.62-1.43,1.48-2.69,2.59-3.76
		c1.11-1.07,2.39-1.92,3.86-2.54c1.46-0.62,3.01-0.93,4.64-0.93c1.69,0,3.27,0.31,4.74,0.93c1.46,0.62,2.75,1.46,3.86,2.54
		c1.11,1.07,1.99,2.33,2.64,3.76c0.65,1.43,0.98,3,0.98,4.69c0,1.69-0.33,3.27-0.98,4.74c-0.65,1.46-1.53,2.75-2.64,3.86
		c-1.11,1.11-2.39,1.99-3.86,2.64c-1.46,0.65-3.04,0.98-4.74,0.98c-1.63,0-3.17-0.33-4.64-0.98c-1.46-0.65-2.75-1.53-3.86-2.64
		c-1.11-1.11-1.97-2.39-2.59-3.86C725.04,351.26,724.73,349.68,724.73,347.99z M771.8,395.74c0-1.69,0.33-3.27,0.98-4.74
		c0.65-1.46,1.53-2.73,2.64-3.81c1.11-1.07,2.41-1.92,3.91-2.54c1.5-0.62,3.06-0.93,4.69-0.93c1.69,0,3.27,0.31,4.74,0.93
		c1.46,0.62,2.73,1.46,3.81,2.54s1.94,2.34,2.59,3.81c0.65,1.46,0.98,3.04,0.98,4.74c0,1.69-0.33,3.27-0.98,4.74
		c-0.65,1.46-1.51,2.73-2.59,3.81s-2.34,1.92-3.81,2.54c-1.46,0.62-3.04,0.93-4.74,0.93c-1.63,0-3.19-0.31-4.69-0.93
		c-1.5-0.62-2.8-1.46-3.91-2.54c-1.11-1.07-1.99-2.34-2.64-3.81C772.13,399.01,771.8,397.43,771.8,395.74z M772,347.99
		c0-1.69,0.33-3.25,0.98-4.69c0.65-1.43,1.51-2.69,2.59-3.76s2.36-1.92,3.86-2.54c1.5-0.62,3.06-0.93,4.69-0.93
		c1.69,0,3.29,0.31,4.79,0.93c1.5,0.62,2.78,1.46,3.86,2.54s1.92,2.33,2.54,3.76c0.62,1.43,0.93,3,0.93,4.69
		c0,1.69-0.31,3.27-0.93,4.74c-0.62,1.46-1.46,2.75-2.54,3.86c-1.07,1.11-2.36,1.99-3.86,2.64c-1.5,0.65-3.09,0.98-4.79,0.98
		c-1.63,0-3.19-0.33-4.69-0.98c-1.5-0.65-2.78-1.53-3.86-2.64c-1.07-1.11-1.94-2.39-2.59-3.86C772.32,351.26,772,349.68,772,347.99z
		"/>
	<path d="M861.45,347.99c0-1.69,0.31-3.25,0.93-4.69c0.62-1.43,1.48-2.69,2.59-3.76c1.11-1.07,2.39-1.92,3.86-2.54
		c1.46-0.62,3.01-0.93,4.64-0.93c1.69,0,3.27,0.31,4.74,0.93c1.46,0.62,2.75,1.46,3.86,2.54c1.11,1.07,1.99,2.33,2.64,3.76
		c0.65,1.43,0.98,3,0.98,4.69c0,1.69-0.33,3.27-0.98,4.74c-0.65,1.46-1.53,2.75-2.64,3.86c-1.11,1.11-2.39,1.99-3.86,2.64
		c-1.46,0.65-3.04,0.98-4.74,0.98c-1.63,0-3.17-0.33-4.64-0.98c-1.46-0.65-2.75-1.53-3.86-2.64c-1.11-1.11-1.97-2.39-2.59-3.86
		C861.76,351.26,861.45,349.68,861.45,347.99z M861.45,396.03c0-1.69,0.31-3.27,0.93-4.74c0.62-1.46,1.48-2.73,2.59-3.81
		c1.11-1.07,2.39-1.92,3.86-2.54c1.46-0.62,3.01-0.93,4.64-0.93c1.69,0,3.27,0.31,4.74,0.93c1.46,0.62,2.75,1.46,3.86,2.54
		c1.11,1.07,1.99,2.34,2.64,3.81c0.65,1.46,0.98,3.04,0.98,4.74c0,1.69-0.33,3.27-0.98,4.74c-0.65,1.46-1.53,2.75-2.64,3.86
		c-1.11,1.11-2.39,1.97-3.86,2.59c-1.46,0.62-3.04,0.93-4.74,0.93c-1.63,0-3.17-0.31-4.64-0.93c-1.46-0.62-2.75-1.48-3.86-2.59
		c-1.11-1.11-1.97-2.39-2.59-3.86C861.76,399.3,861.45,397.73,861.45,396.03z M908.52,395.74c0-1.69,0.33-3.27,0.98-4.74
		c0.65-1.46,1.53-2.73,2.64-3.81c1.11-1.07,2.41-1.92,3.91-2.54c1.5-0.62,3.06-0.93,4.69-0.93c1.69,0,3.27,0.31,4.74,0.93
		c1.46,0.62,2.73,1.46,3.81,2.54s1.94,2.34,2.59,3.81c0.65,1.46,0.98,3.04,0.98,4.74c0,1.69-0.33,3.27-0.98,4.74
		c-0.65,1.46-1.51,2.73-2.59,3.81s-2.34,1.92-3.81,2.54c-1.46,0.62-3.04,0.93-4.74,0.93c-1.63,0-3.19-0.31-4.69-0.93
		c-1.5-0.62-2.8-1.46-3.91-2.54c-1.11-1.07-1.99-2.34-2.64-3.81C908.85,399.01,908.52,397.43,908.52,395.74z M908.72,347.99
		c0-1.69,0.33-3.25,0.98-4.69c0.65-1.43,1.51-2.69,2.59-3.76s2.36-1.92,3.86-2.54c1.5-0.62,3.06-0.93,4.69-0.93
		c1.69,0,3.29,0.31,4.79,0.93c1.5,0.62,2.78,1.46,3.86,2.54s1.92,2.33,2.54,3.76c0.62,1.43,0.93,3,0.93,4.69
		c0,1.69-0.31,3.27-0.93,4.74c-0.62,1.46-1.46,2.75-2.54,3.86c-1.07,1.11-2.36,1.99-3.86,2.64c-1.5,0.65-3.09,0.98-4.79,0.98
		c-1.63,0-3.19-0.33-4.69-0.98c-1.5-0.65-2.78-1.53-3.86-2.64c-1.07-1.11-1.94-2.39-2.59-3.86
		C909.04,351.26,908.72,349.68,908.72,347.99z"/>
	<path d="M998.17,347.99c0-1.69,0.31-3.25,0.93-4.69c0.62-1.43,1.48-2.69,2.59-3.76c1.11-1.07,2.39-1.92,3.86-2.54
		c1.46-0.62,3.01-0.93,4.64-0.93c1.69,0,3.27,0.31,4.74,0.93c1.46,0.62,2.75,1.46,3.86,2.54c1.11,1.07,1.99,2.33,2.64,3.76
		c0.65,1.43,0.98,3,0.98,4.69c0,1.69-0.33,3.27-0.98,4.74c-0.65,1.46-1.53,2.75-2.64,3.86c-1.11,1.11-2.39,1.99-3.86,2.64
		c-1.46,0.65-3.04,0.98-4.74,0.98c-1.63,0-3.17-0.33-4.64-0.98c-1.46-0.65-2.75-1.53-3.86-2.64c-1.11-1.11-1.97-2.39-2.59-3.86
		C998.48,351.26,998.17,349.68,998.17,347.99z"/>
</g>
</svg>
