<?xml version="1.0" encoding="utf-8"?>
<!-- Generator: Adobe Illustrator 27.0.0, SVG Export Plug-In . SVG Version: 6.00 Build 0)  -->
<svg version="1.1" id="Layer_1" xmlns="http://www.w3.org/2000/svg" xmlns:xlink="http://www.w3.org/1999/xlink" x="0px" y="0px"
	 viewBox="0 0 1200 232.7" style="enable-background:new 0 0 1200 232.7;" xml:space="preserve">
<style type="text/css">
	.st0{fill:#73950B;}
	.st1{display:none;}
	.st2{display:inline;}
	.st3{fill:#FFFFFF;}
</style>
<g id="Layer_2">
	<rect x="0.67" y="-1.59" class="st0" width="1200.78" height="233.26"/>
</g>
<g>
	<g class="st1">
		<path class="st2" d="M248.23,70.59h5.62l-30.34,13.2c-1.95,0.13-4.05,0.27-6.29,0.4c-2.25,0.13-4.65,0.2-7.19,0.2
			c-3.3,0-5.62-0.57-6.97-1.7c-1.35-1.13-2.02-3.57-2.02-7.3v-18.8c0-5.07-0.26-8.73-0.79-11c-0.53-2.27-1.35-3.67-2.47-4.2
			c-1.12-0.53-2.66-0.8-4.61-0.8h-1.8c-0.45-1.2-0.79-2.37-1.01-3.5c-0.23-1.13-0.34-2.3-0.34-3.5c0-2,0.71-3.8,2.14-5.4
			c1.42-1.6,4.12-2.83,8.09-3.7c3.97-0.87,9.78-1.3,17.42-1.3c6.14,0,10.64,1.07,13.48,3.2c2.84,2.13,4.27,5.6,4.27,10.4v20.2
			c0,3.47,0.15,6.2,0.45,8.2c0.3,2,1.35,3.4,3.15,4.2C240.81,70.19,243.88,70.59,248.23,70.59z M301.94,189.99
			c-6.15,0-10.64-1.07-13.48-3.2c-2.85-2.13-4.27-5.6-4.27-10.4c0-2.67,0.15-5.8,0.45-9.4c0.3-3.6,0.64-7.6,1.01-12
			c0.37-4.4,0.71-9.2,1.01-14.4c0.3-5.2,0.45-10.73,0.45-16.6c0-10-0.71-17.7-2.14-23.1c-1.43-5.4-3.79-9.17-7.08-11.3
			c-3.3-2.13-7.87-3.2-13.71-3.2c-7.94,0-14.01,1.63-18.2,4.9c-4.2,3.27-7.04,7.27-8.54,12c-1.5,4.73-2.25,9.43-2.25,14.1
			c0,5.07,0.37,9.6,1.12,13.6c0.75,4,1.76,7.57,3.03,10.7c1.27,3.13,2.58,5.97,3.93,8.5c-1.95,1.33-5.25,2.67-9.89,4
			c-4.65,1.33-9.81,2-15.51,2c-3.9,0-7.23-0.5-10-1.5c-2.77-1-4.83-3.03-6.18-6.1c-1.35-3.07-2.02-7.53-2.02-13.4
			c0-14.13,2.02-25.6,6.07-34.4c4.04-8.8,9.51-15.6,16.41-20.4c6.89-4.8,14.64-8.1,23.26-9.9c8.61-1.8,17.49-2.7,26.63-2.7
			c11.38,0,20.82,1.43,28.32,4.3c7.49,2.87,13.11,7.23,16.85,13.1c3.74,5.87,5.62,13.33,5.62,22.4c0,2.53-0.19,6.23-0.56,11.1
			c-0.38,4.87-0.75,10.13-1.12,15.8c-0.38,5.67-0.75,10.97-1.12,15.9c-0.38,4.93-0.56,8.73-0.56,11.4c0,3.47,0.15,5.97,0.45,7.5
			c0.3,1.53,1.01,2.47,2.13,2.8c1.12,0.33,2.88,0.5,5.28,0.5h1.8c0.45,1.2,0.79,2.37,1.01,3.5c0.22,1.13,0.34,2.3,0.34,3.5
			c0,2-0.71,3.77-2.13,5.3c-1.43,1.53-4.2,2.77-8.31,3.7C315.91,189.52,309.88,189.99,301.94,189.99z"/>
		<path class="st2" d="M427.56,168.59c9.29,0,16.85-0.87,22.7-2.6c5.84-1.73,10.37-4.33,13.6-7.8c3.22-3.47,5.43-7.73,6.63-12.8
			c1.2-5.07,1.8-11,1.8-17.8v-50.2c0-8-0.15-13.73-0.45-17.2c-0.3-3.47-0.98-5.6-2.02-6.4c-1.05-0.8-2.85-1.2-5.39-1.2h-1.8
			c-0.45-1.2-0.79-2.37-1.01-3.5c-0.22-1.13-0.34-2.3-0.34-3.5c0-2,0.71-3.8,2.13-5.4c1.42-1.6,4.19-2.83,8.32-3.7
			c4.12-0.87,10.15-1.3,18.09-1.3c6.14,0,10.64,1.07,13.48,3.2c2.84,2.13,4.27,5.6,4.27,10.4v60.6c0,15.07-1.01,27.43-3.03,37.1
			c-2.02,9.67-5.54,17.2-10.56,22.6c-5.02,5.4-12.02,9.17-21.01,11.3c-8.99,2.13-20.45,3.2-34.38,3.2c-1.95,0-4.49,0.1-7.64,0.3
			c-3.15,0.2-5.84,0.57-8.09,1.1c0,0.67,0.04,1.37,0.11,2.1c0.07,0.73,0.11,1.57,0.11,2.5c0,6.8-1.43,11.97-4.27,15.5
			c-2.85,3.53-7.34,5.3-13.48,5.3c-3.45,0-6.85-0.33-10.23-1c-3.37-0.67-7.01-1.8-10.9-3.4c1.95-3.6,3.33-7.3,4.16-11.1
			c0.82-3.8,1.46-7.43,1.91-10.9c0.6-4,1.83-7.1,3.71-9.3c1.87-2.2,5.39-3.77,10.56-4.7C409.69,169.06,417.37,168.59,427.56,168.59z
			 M455.2,102.79c-1.8,0-4.16,0.13-7.08,0.4c-2.92,0.27-5.43,0.6-7.53,1c0,0.53,0,1.03,0,1.5c0,0.47,0,0.97,0,1.5
			c0,8-1.76,13.73-5.28,17.2c-3.52,3.47-8.8,5.2-15.84,5.2c-4.65,0-8.5-0.53-11.57-1.6c-3.07-1.07-5.66-2.67-7.75-4.8
			c2.1-2.53,3.6-5.4,4.49-8.6c0.9-3.2,1.65-7,2.25-11.4c0.6-4,1.83-7.1,3.71-9.3c1.87-2.2,5.39-3.77,10.56-4.7
			c5.17-0.93,12.84-1.4,23.04-1.4h47.42c13.18,0,24.68-0.5,34.5-1.5c9.81-1,17.79-1.97,23.93-2.9c6.14-0.93,10.26-1.4,12.36-1.4
			c3.44,0,5.73,1.13,6.85,3.4c1.12,2.27,1.76,5.87,1.91,10.8c0,2.8,0.67,4.73,2.02,5.8c1.35,1.07,3.22,1.6,5.62,1.6
			c0.3,1.07,0.52,2.1,0.67,3.1c0.15,1,0.22,1.9,0.22,2.7c0,4.53-1.84,7.43-5.51,8.7c-3.67,1.27-8.35,1.9-14.05,1.9
			c-8.54,0-14.57-1.9-18.09-5.7c-3.52-3.8-5.28-9.77-5.28-17.9l6.74,3.8c-9.44,1.07-17.64,1.77-24.61,2.1
			c-6.97,0.33-14.5,0.5-22.59,0.5H455.2z"/>
		<path class="st2" d="M693.64,50.19h-0.9c-1.5,0-3.9,0.13-7.19,0.4c-3.3,0.27-5.84,0.6-7.64,1c0,0.53,0,1.03,0,1.5
			c0,0.47,0,0.97,0,1.5c0,8-1.76,13.73-5.28,17.2c-3.52,3.47-8.8,5.2-15.84,5.2c-4.65,0-8.5-0.53-11.57-1.6
			c-3.07-1.07-5.66-2.67-7.75-4.8c2.1-2.53,3.6-5.4,4.49-8.6c0.9-3.2,1.65-7,2.25-11.4c0.6-4,1.83-7.1,3.71-9.3
			c1.87-2.2,5.39-3.77,10.56-4.7c5.17-0.93,12.84-1.4,23.04-1.4h37.31c6.44,0,11.09,1.07,13.93,3.2c2.84,2.13,4.27,5.6,4.27,10.4
			v19.8c0,6.13,0.93,10.03,2.81,11.7c1.87,1.67,5.8,2.5,11.8,2.5h27.42c5.84,0,8.76,2.27,8.76,6.8c0,1.47-0.94,4.1-2.81,7.9
			c-1.88,3.8-4.31,8.3-7.3,13.5c-3,5.2-6.15,10.67-9.44,16.4c-3.3,5.73-6.44,11.33-9.44,16.8c-3,5.47-5.43,10.37-7.3,14.7
			c-1.88,4.33-2.81,7.7-2.81,10.1c0,1.33,0.37,2.3,1.12,2.9c0.75,0.6,3,0.9,6.74,0.9h1.8c0.45,1.2,0.79,2.37,1.01,3.5
			c0.22,1.13,0.34,2.3,0.34,3.5c0,2-0.71,3.77-2.13,5.3c-1.43,1.54-4.2,2.77-8.32,3.7c-4.12,0.93-10.15,1.4-18.09,1.4
			c-7.04,0-12.17-1.07-15.39-3.2c-3.22-2.13-4.83-5.6-4.83-10.4c0-2.93,0.79-6.5,2.36-10.7c1.57-4.2,3.6-8.8,6.07-13.8
			c2.47-5,5.13-10.07,7.98-15.2c2.84-5.13,5.51-10,7.98-14.6c2.47-4.6,4.5-8.7,6.07-12.3c1.57-3.6,2.36-6.27,2.36-8
			c0-2.67-0.67-4.37-2.02-5.1c-1.35-0.73-3.45-1.1-6.29-1.1h-23.82c-3.6,0-6.18-0.67-7.75-2c-1.57-1.33-2.36-3.93-2.36-7.8v-23.2
			c0-5.87-0.53-9.43-1.57-10.7C698.88,50.82,696.79,50.19,693.64,50.19z"/>
		<path class="st2" d="M974.1,86.39c0,15.07-0.86,28.03-2.58,38.9c-1.72,10.87-4.42,19.93-8.09,27.2
			c-3.67,7.27-8.54,13.03-14.61,17.3c-6.07,4.27-13.45,7.3-22.14,9.1c-8.69,1.8-18.8,2.7-30.34,2.7c-1.95,0-4.5,0.1-7.64,0.3
			c-3.15,0.2-5.84,0.57-8.09,1.1c0,0.67,0.04,1.37,0.11,2.1c0.07,0.73,0.11,1.57,0.11,2.5c0,6.8-1.43,11.97-4.27,15.5
			c-2.85,3.53-7.34,5.3-13.48,5.3c-3.45,0-6.85-0.33-10.22-1c-3.37-0.67-7.01-1.8-10.9-3.4c1.95-3.6,3.33-7.3,4.16-11.1
			c0.82-3.8,1.46-7.43,1.91-10.9c0.6-4,1.83-7.1,3.71-9.3c1.87-2.2,5.39-3.77,10.56-4.7c5.17-0.93,12.84-1.4,23.04-1.4
			c10.34,0,18.76-1.43,25.28-4.3c6.52-2.87,11.57-7.23,15.17-13.1c3.6-5.87,6.07-13.4,7.42-22.6c1.35-9.2,2.02-20.06,2.02-32.6
			c0-11.33-1.72-19.93-5.17-25.8c-3.45-5.87-8.92-8.8-16.41-8.8c-3.75,0-7.94,0.3-12.58,0.9c-4.65,0.6-8.92,1.43-12.81,2.5
			c0,0.53,0,1.27,0,2.2c0,0.93,0,1.67,0,2.2c0,8-1.76,13.73-5.28,17.2c-3.52,3.47-8.8,5.2-15.84,5.2c-4.65,0-8.5-0.53-11.57-1.6
			c-3.07-1.07-5.66-2.67-7.75-4.8c2.1-2.53,3.6-5.4,4.49-8.6c0.9-3.2,1.65-7,2.25-11.4c0.6-4.27,1.98-7.47,4.16-9.6
			c2.17-2.13,6.48-3.73,12.92-4.8c5.39-0.93,11.61-1.87,18.65-2.8c7.04-0.93,14.08-1.7,21.12-2.3c7.04-0.6,13.26-0.9,18.65-0.9
			c10.79,0,19.4,1.33,25.84,4c6.44,2.67,11.09,7.17,13.93,13.5C972.68,66.62,974.1,75.32,974.1,86.39z"/>
	</g>
</g>
<g>
	<g>
		<path d="M177.04,151h5.46c0.23-6.13,0.41-12,0.53-17.6c0.12-5.6,0.18-10.93,0.18-16V83c0-5.33-0.06-10.8-0.18-16.4
			c-0.12-5.6-0.29-11.33-0.53-17.2h-10.04c-0.82-3.2-1.23-6.2-1.23-9c0-4.67,1.94-7,5.81-7H223c0.82,3.2,1.23,6.2,1.23,9
			c0,4.67-1.94,7-5.81,7h-5.46c-0.24,5.87-0.41,11.63-0.53,17.3c-0.12,5.67-0.18,11.03-0.18,16.1v10c3.76-4.67,7.45-9.27,11.09-13.8
			c3.64-4.53,7.22-9.23,10.74-14.1c3.52-4.87,6.93-10.03,10.21-15.5h-8.81c-0.82-3.2-1.23-6.2-1.23-9c0-4.67,1.94-7,5.81-7h44.2
			c0.82,3.2,1.23,6.2,1.23,9c0,4.67-1.94,7-5.81,7h-4.23l-30.64,34.8l22.19,48.2c2.82,6.13,5.13,10.47,6.96,13
			c1.82,2.53,3.58,4.1,5.28,4.7c1.7,0.6,3.67,0.9,5.9,0.9h2.29c0.82,3.2,1.23,6.2,1.23,9c0,4.67-1.94,7-5.81,7h-34.69
			c-0.47-2.4-1.65-6.13-3.52-11.2c-1.88-5.07-4.08-10.63-6.6-16.7c-2.53-6.07-4.96-11.96-7.31-17.7c-2.35-5.73-4.34-10.4-5.99-14
			l-12.5,14.2v1.6c0,3.87,0.06,8.1,0.18,12.7c0.12,4.6,0.29,9.63,0.53,15.1H223c0.82,3.2,1.23,6.2,1.23,9c0,4.67-1.94,7-5.81,7
			h-45.96c-0.82-3.2-1.23-6.2-1.23-9C171.23,153.34,173.17,151,177.04,151z"/>
		<path d="M409.14,165.2l-21.13,1.8c-0.82-1.33-1.5-2.97-2.02-4.9c-0.53-1.93-0.91-3.7-1.15-5.3c-3.99,4.27-7.98,7.37-11.97,9.3
			c-3.99,1.93-9.04,2.9-15.14,2.9c-7.51,0-13.68-2.4-18.49-7.2c-4.82-4.8-7.22-12.13-7.22-22c0-10,3.32-17.73,9.95-23.2
			c6.63-5.47,16-8.2,28.09-8.2h10.04v-3.6c0-6.27-0.5-11.03-1.5-14.3c-1-3.27-2.58-5.53-4.75-6.8c-2.17-1.27-5.02-1.9-8.54-1.9
			h-4.75l-3.17,15.8c-1.41,0.53-3.14,1-5.19,1.4c-2.06,0.4-4.08,0.6-6.08,0.6c-2,0-3.96-0.87-5.9-2.6c-1.94-1.73-3.49-3.97-4.67-6.7
			c-1.17-2.73-1.76-5.57-1.76-8.5c0-2.27,0.47-4.13,1.41-5.6c0.94-1.47,2.58-2.87,4.93-4.2c3.64-2,8.77-3.7,15.41-5.1
			c6.63-1.4,13.76-2.1,21.4-2.1c10.45,0,18.02,2.53,22.72,7.6c4.69,5.07,7.04,13.4,7.04,25v40c0,5.07,0.44,8.33,1.32,9.8
			c0.88,1.47,2.61,2.2,5.2,2.2h3.87c0.23,1.07,0.44,2.17,0.62,3.3c0.18,1.13,0.26,2.5,0.26,4.1c0,2.8-0.62,4.83-1.85,6.1
			C414.86,164.17,412.54,164.94,409.14,165.2z M380.08,132v-6h-11.62c-3.29,0-5.84,1.07-7.66,3.2c-1.82,2.13-2.73,4.93-2.73,8.4
			c0,3.47,0.82,6.17,2.47,8.1c1.64,1.93,4.11,2.9,7.4,2.9c4.11,0,7.16-1.46,9.16-4.4C379.08,141.27,380.08,137.2,380.08,132z"/>
		<path d="M473.24,134.4V86.2h-12.86c-0.47-1.6-0.85-3.2-1.14-4.8c-0.29-1.6-0.44-3.47-0.44-5.6c0-6,2.4-9,7.22-9h7.22l6.69-29
			l8.1,0.6c4.46,0.27,7.54,1.47,9.25,3.6c1.7,2.13,2.55,6.07,2.55,11.8v13h30.82c0.59,1.6,1,3.17,1.23,4.7
			c0.23,1.53,0.35,3.43,0.35,5.7c0,6-2.41,9-7.22,9h-25.18v42.4c0,6.54,1.03,11.37,3.08,14.5c2.05,3.13,4.84,4.7,8.36,4.7
			c2.35,0,4.55-0.7,6.6-2.1c2.05-1.4,3.79-3.37,5.19-5.9c2.7,0.67,4.99,2.07,6.87,4.2c1.88,2.13,2.82,4.67,2.82,7.6
			c0,4.54-2.67,8.57-8.01,12.1c-5.34,3.53-12.36,5.3-21.04,5.3c-10.68,0-18.43-3.07-23.25-9.2
			C475.65,153.67,473.24,145.2,473.24,134.4z"/>
		<path d="M655.33,165.2l-21.13,1.8c-0.82-1.33-1.5-2.97-2.02-4.9c-0.53-1.93-0.91-3.7-1.15-5.3c-3.99,4.27-7.98,7.37-11.97,9.3
			c-3.99,1.93-9.04,2.9-15.14,2.9c-7.51,0-13.68-2.4-18.49-7.2c-4.82-4.8-7.22-12.13-7.22-22c0-10,3.32-17.73,9.95-23.2
			c6.63-5.47,16-8.2,28.09-8.2h10.04v-3.6c0-6.27-0.5-11.03-1.5-14.3c-1-3.27-2.58-5.53-4.75-6.8c-2.17-1.27-5.02-1.9-8.54-1.9
			h-4.75l-3.17,15.8c-1.41,0.53-3.14,1-5.19,1.4c-2.06,0.4-4.08,0.6-6.08,0.6c-2,0-3.96-0.87-5.9-2.6c-1.94-1.73-3.49-3.97-4.67-6.7
			c-1.17-2.73-1.76-5.57-1.76-8.5c0-2.27,0.47-4.13,1.41-5.6c0.94-1.47,2.58-2.87,4.93-4.2c3.64-2,8.77-3.7,15.41-5.1
			c6.63-1.4,13.76-2.1,21.4-2.1c10.45,0,18.02,2.53,22.72,7.6c4.69,5.07,7.04,13.4,7.04,25v40c0,5.07,0.44,8.33,1.32,9.8
			c0.88,1.47,2.61,2.2,5.2,2.2h3.87c0.23,1.07,0.44,2.17,0.62,3.3c0.18,1.13,0.26,2.5,0.26,4.1c0,2.8-0.62,4.83-1.85,6.1
			C661.05,164.17,658.73,164.94,655.33,165.2z M626.27,132v-6h-11.62c-3.29,0-5.84,1.07-7.66,3.2c-1.82,2.13-2.73,4.93-2.73,8.4
			c0,3.47,0.82,6.17,2.46,8.1c1.64,1.93,4.11,2.9,7.4,2.9c4.11,0,7.16-1.46,9.16-4.4C625.27,141.27,626.27,137.2,626.27,132z"/>
		<path d="M715.2,151h5.28c0.23-6.93,0.41-13.03,0.53-18.3c0.12-5.27,0.18-10.97,0.18-17.1V95.8c0-4.93-0.68-8.23-2.03-9.9
			c-1.35-1.67-3.55-2.5-6.6-2.5h-2.82c-0.47-1.73-0.79-3.4-0.97-5c-0.18-1.6-0.26-3.13-0.26-4.6c0-4.67,2.23-7,6.69-7h26.24
			c0.35,1.73,0.64,3.7,0.88,5.9c0.23,2.2,0.35,4.23,0.35,6.1c4.46-4.13,9.18-7.5,14.18-10.1c4.99-2.6,11.01-3.9,18.05-3.9
			c8.33,0,14.76,2.3,19.28,6.9c4.52,4.6,6.78,13.03,6.78,25.3v34.6c0,5.6,0.2,9.8,0.62,12.6c0.41,2.8,1.14,4.63,2.2,5.5
			c1.06,0.87,2.47,1.3,4.23,1.3H811c0.47,1.73,0.79,3.37,0.97,4.9c0.18,1.53,0.26,2.9,0.26,4.1c0,4.67-2.23,7-6.69,7h-32.4
			c0.12-3.33,0.26-7.5,0.44-12.5s0.35-10.17,0.53-15.5c0.18-5.33,0.26-9.93,0.26-13.8v-9.6c0-7.33-0.35-13.17-1.06-17.5
			c-0.71-4.33-2.03-7.43-3.96-9.3c-1.94-1.87-4.9-2.8-8.89-2.8c-3.76,0-6.81,1.33-9.16,4c-2.35,2.67-3.52,7.93-3.52,15.8v9.8
			c0,6.13,0.06,11.83,0.18,17.1c0.12,5.27,0.29,11.37,0.53,18.3h10.04c0.47,1.73,0.79,3.37,0.97,4.9c0.18,1.53,0.26,2.9,0.26,4.1
			c0,4.67-2.23,7-6.69,7h-43.32c-0.47-1.73-0.79-3.37-0.97-4.9c-0.18-1.53-0.26-2.9-0.26-4.1C708.51,153.34,710.74,151,715.2,151z"
			/>
		<path d="M943.95,173.6c0,6.4-1.56,12-4.67,16.8c-3.11,4.8-7.37,8.8-12.77,12c-5.4,3.2-11.54,5.6-18.4,7.2
			c-6.87,1.6-14.12,2.4-21.75,2.4c-8.69,0-15.5-1.07-20.43-3.2c-4.93-2.13-8.39-4.9-10.39-8.3c-2-3.4-2.99-7.1-2.99-11.1
			c0-4.27,1.44-8.17,4.31-11.7c2.88-3.53,6.66-6.43,11.36-8.7l2.47-1.2c-2.23-1.87-3.82-4.1-4.75-6.7c-0.94-2.6-1.41-5.17-1.41-7.7
			c0-3.87,0.94-7.33,2.82-10.4c1.88-3.07,4.05-5.67,6.52-7.8c-4.7-2.27-8.84-6.27-12.42-12c-3.58-5.73-5.37-12.67-5.37-20.8
			c0-8,1.7-14.8,5.11-20.4c3.4-5.6,8.13-9.87,14.18-12.8c6.04-2.93,12.94-4.4,20.69-4.4c2.7,0,5.37,0.17,8.01,0.5
			c2.64,0.33,4.96,0.83,6.96,1.5h34.87c0.59,1.6,1,3.17,1.23,4.7c0.23,1.53,0.35,3.43,0.35,5.7c0,6-2.41,9-7.22,9h-8.28
			c2.46,4,3.7,9.2,3.7,15.6c0,11.73-3.88,20.63-11.62,26.7c-7.75,6.07-18.2,9.1-31.35,9.1c-1.88,0-3.26,0.43-4.14,1.3
			c-0.88,0.87-1.32,2.03-1.32,3.5c0,1.87,0.67,3.33,2.02,4.4c1.35,1.07,3.67,1.6,6.96,1.6h17.08c11.03,0,18.9,2.2,23.6,6.6
			C941.6,159.4,943.95,165.6,943.95,173.6z M918.42,181.6c0-3.07-0.74-5.2-2.2-6.4c-1.47-1.2-4.32-1.8-8.54-1.8h-27.12
			c-1.53,1.73-2.61,3.5-3.26,5.3c-0.65,1.8-0.97,3.63-0.97,5.5c0,3.73,1.2,6.43,3.61,8.1c2.41,1.67,6.37,2.5,11.89,2.5
			c5.99,0,10.95-0.5,14.88-1.5c3.93-1,6.87-2.5,8.8-4.5C917.45,186.8,918.42,184.4,918.42,181.6z M909.26,103
			c0-7.33-1.18-12.87-3.52-16.6c-2.35-3.73-5.87-5.6-10.57-5.6c-3.64,0-6.66,1.5-9.07,4.5c-2.41,3-3.61,7.7-3.61,14.1
			c0,7.33,1.17,12.87,3.52,16.6c2.35,3.73,5.87,5.6,10.57,5.6c3.76,0,6.81-1.5,9.16-4.5C908.08,114.1,909.26,109.4,909.26,103z"/>
		<path d="M1069.16,165.2l-21.13,1.8c-0.82-1.33-1.5-2.97-2.03-4.9c-0.53-1.93-0.91-3.7-1.14-5.3c-3.99,4.27-7.99,7.37-11.97,9.3
			c-3.99,1.93-9.04,2.9-15.14,2.9c-7.51,0-13.68-2.4-18.49-7.2c-4.81-4.8-7.22-12.13-7.22-22c0-10,3.32-17.73,9.95-23.2
			c6.63-5.47,15.99-8.2,28.09-8.2h10.04v-3.6c0-6.27-0.5-11.03-1.5-14.3c-1-3.27-2.58-5.53-4.75-6.8c-2.17-1.27-5.02-1.9-8.54-1.9
			h-4.75l-3.17,15.8c-1.41,0.53-3.14,1-5.2,1.4c-2.05,0.4-4.08,0.6-6.08,0.6c-2,0-3.96-0.87-5.9-2.6c-1.94-1.73-3.49-3.97-4.67-6.7
			c-1.18-2.73-1.76-5.57-1.76-8.5c0-2.27,0.47-4.13,1.41-5.6c0.94-1.47,2.58-2.87,4.93-4.2c3.64-2,8.77-3.7,15.41-5.1
			c6.63-1.4,13.76-2.1,21.4-2.1c10.45,0,18.02,2.53,22.72,7.6c4.69,5.07,7.04,13.4,7.04,25v40c0,5.07,0.44,8.33,1.32,9.8
			c0.88,1.47,2.61,2.2,5.2,2.2h3.87c0.23,1.07,0.44,2.17,0.62,3.3c0.18,1.13,0.26,2.5,0.26,4.1c0,2.8-0.62,4.83-1.85,6.1
			C1074.88,164.17,1072.56,164.94,1069.16,165.2z M1040.1,132v-6h-11.62c-3.29,0-5.84,1.07-7.66,3.2c-1.82,2.13-2.73,4.93-2.73,8.4
			c0,3.47,0.82,6.17,2.47,8.1c1.64,1.93,4.11,2.9,7.4,2.9c4.11,0,7.16-1.46,9.16-4.4C1039.1,141.27,1040.1,137.2,1040.1,132z"/>
	</g>
</g>
<g>
	<path class="st3" d="M177.66,170.85c0-1.69,0.33-3.27,0.98-4.74c0.65-1.46,1.53-2.73,2.64-3.81c1.11-1.07,2.39-1.94,3.86-2.59
		c1.46-0.65,3.04-0.98,4.74-0.98c1.69,0,3.27,0.33,4.74,0.98c1.46,0.65,2.73,1.51,3.81,2.59s1.94,2.34,2.59,3.81
		c0.65,1.46,0.98,3.04,0.98,4.74c0,1.63-0.33,3.17-0.98,4.64c-0.65,1.46-1.51,2.75-2.59,3.86c-1.07,1.11-2.34,1.97-3.81,2.59
		c-1.46,0.62-3.04,0.93-4.74,0.93c-1.69,0-3.27-0.31-4.74-0.93c-1.46-0.62-2.75-1.48-3.86-2.59s-1.99-2.39-2.64-3.86
		C177.99,174.03,177.66,172.48,177.66,170.85z M177.86,74.96c0-1.69,0.31-3.25,0.93-4.69c0.62-1.43,1.48-2.69,2.59-3.76
		s2.39-1.92,3.86-2.54c1.46-0.62,3.01-0.93,4.64-0.93c1.69,0,3.27,0.31,4.74,0.93c1.46,0.62,2.75,1.46,3.86,2.54
		c1.11,1.07,1.99,2.33,2.64,3.76c0.65,1.43,0.98,3,0.98,4.69s-0.33,3.27-0.98,4.74c-0.65,1.46-1.53,2.75-2.64,3.86
		s-2.39,1.99-3.86,2.64c-1.46,0.65-3.04,0.98-4.74,0.98c-1.63,0-3.17-0.33-4.64-0.98c-1.46-0.65-2.75-1.53-3.86-2.64
		c-1.11-1.11-1.97-2.39-2.59-3.86S177.86,76.65,177.86,74.96z"/>
	<path class="st3" d="M314.58,74.96c0-1.69,0.31-3.25,0.93-4.69c0.62-1.43,1.48-2.69,2.59-3.76s2.39-1.92,3.86-2.54
		c1.46-0.62,3.01-0.93,4.64-0.93c1.69,0,3.27,0.31,4.74,0.93c1.46,0.62,2.75,1.46,3.86,2.54c1.11,1.07,1.99,2.33,2.64,3.76
		c0.65,1.43,0.98,3,0.98,4.69s-0.33,3.27-0.98,4.74c-0.65,1.46-1.53,2.75-2.64,3.86c-1.11,1.11-2.39,1.99-3.86,2.64
		c-1.46,0.65-3.04,0.98-4.74,0.98c-1.63,0-3.17-0.33-4.64-0.98c-1.46-0.65-2.75-1.53-3.86-2.64c-1.11-1.11-1.97-2.39-2.59-3.86
		C314.89,78.23,314.58,76.65,314.58,74.96z"/>
	<path class="st3" d="M451.1,170.85c0-1.69,0.33-3.27,0.98-4.74c0.65-1.46,1.53-2.73,2.64-3.81c1.11-1.07,2.39-1.94,3.86-2.59
		c1.46-0.65,3.04-0.98,4.74-0.98c1.69,0,3.27,0.33,4.74,0.98c1.46,0.65,2.73,1.51,3.81,2.59s1.94,2.34,2.59,3.81
		c0.65,1.46,0.98,3.04,0.98,4.74c0,1.63-0.33,3.17-0.98,4.64c-0.65,1.46-1.51,2.75-2.59,3.86c-1.07,1.11-2.34,1.97-3.81,2.59
		c-1.46,0.62-3.04,0.93-4.74,0.93c-1.69,0-3.27-0.31-4.74-0.93c-1.46-0.62-2.75-1.48-3.86-2.59s-1.99-2.39-2.64-3.86
		C451.43,174.03,451.1,172.48,451.1,170.85z M451.3,123c0-1.69,0.31-3.27,0.93-4.74c0.62-1.46,1.48-2.73,2.59-3.81
		c1.11-1.07,2.39-1.92,3.86-2.54c1.46-0.62,3.01-0.93,4.64-0.93c1.69,0,3.27,0.31,4.74,0.93c1.46,0.62,2.75,1.46,3.86,2.54
		c1.11,1.07,1.99,2.34,2.64,3.81c0.65,1.46,0.98,3.04,0.98,4.74c0,1.69-0.33,3.27-0.98,4.74c-0.65,1.46-1.53,2.75-2.64,3.86
		c-1.11,1.11-2.39,1.97-3.86,2.59c-1.46,0.62-3.04,0.93-4.74,0.93c-1.63,0-3.17-0.31-4.64-0.93c-1.46-0.62-2.75-1.48-3.86-2.59
		s-1.97-2.39-2.59-3.86C451.6,126.27,451.3,124.7,451.3,123z M498.37,122.71c0-1.69,0.33-3.27,0.98-4.74
		c0.65-1.46,1.53-2.73,2.64-3.81c1.11-1.07,2.41-1.92,3.91-2.54s3.06-0.93,4.69-0.93c1.69,0,3.27,0.31,4.74,0.93
		c1.46,0.62,2.73,1.46,3.81,2.54s1.94,2.34,2.59,3.81c0.65,1.46,0.98,3.04,0.98,4.74c0,1.69-0.33,3.27-0.98,4.74
		c-0.65,1.46-1.51,2.73-2.59,3.81s-2.34,1.92-3.81,2.54c-1.46,0.62-3.04,0.93-4.74,0.93c-1.63,0-3.19-0.31-4.69-0.93
		s-2.8-1.46-3.91-2.54c-1.11-1.07-1.99-2.34-2.64-3.81C498.69,125.98,498.37,124.4,498.37,122.71z M498.56,74.96
		c0-1.69,0.33-3.25,0.98-4.69c0.65-1.43,1.51-2.69,2.59-3.76s2.36-1.92,3.86-2.54s3.06-0.93,4.69-0.93c1.69,0,3.29,0.31,4.79,0.93
		s2.78,1.46,3.86,2.54s1.92,2.33,2.54,3.76c0.62,1.43,0.93,3,0.93,4.69s-0.31,3.27-0.93,4.74c-0.62,1.46-1.46,2.75-2.54,3.86
		c-1.07,1.11-2.36,1.99-3.86,2.64c-1.5,0.65-3.09,0.98-4.79,0.98c-1.63,0-3.19-0.33-4.69-0.98c-1.5-0.65-2.78-1.53-3.86-2.64
		c-1.07-1.11-1.94-2.39-2.59-3.86C498.89,78.23,498.56,76.65,498.56,74.96z"/>
	<path class="st3" d="M588.01,74.96c0-1.69,0.31-3.25,0.93-4.69c0.62-1.43,1.48-2.69,2.59-3.76c1.11-1.07,2.39-1.92,3.86-2.54
		c1.46-0.62,3.01-0.93,4.64-0.93c1.69,0,3.27,0.31,4.74,0.93c1.46,0.62,2.75,1.46,3.86,2.54c1.11,1.07,1.99,2.33,2.64,3.76
		c0.65,1.43,0.98,3,0.98,4.69s-0.33,3.27-0.98,4.74c-0.65,1.46-1.53,2.75-2.64,3.86s-2.39,1.99-3.86,2.64
		c-1.46,0.65-3.04,0.98-4.74,0.98c-1.63,0-3.17-0.33-4.64-0.98c-1.46-0.65-2.75-1.53-3.86-2.64c-1.11-1.11-1.97-2.39-2.59-3.86
		C588.32,78.23,588.01,76.65,588.01,74.96z"/>
	<path class="st3" d="M724.54,170.85c0-1.69,0.33-3.27,0.98-4.74c0.65-1.46,1.53-2.73,2.64-3.81c1.11-1.07,2.39-1.94,3.86-2.59
		c1.46-0.65,3.04-0.98,4.74-0.98c1.69,0,3.27,0.33,4.74,0.98c1.46,0.65,2.73,1.51,3.81,2.59s1.94,2.34,2.59,3.81
		c0.65,1.46,0.98,3.04,0.98,4.74c0,1.63-0.33,3.17-0.98,4.64c-0.65,1.46-1.51,2.75-2.59,3.86c-1.07,1.11-2.34,1.97-3.81,2.59
		c-1.46,0.62-3.04,0.93-4.74,0.93c-1.69,0-3.27-0.31-4.74-0.93c-1.46-0.62-2.75-1.48-3.86-2.59s-1.99-2.39-2.64-3.86
		C724.86,174.03,724.54,172.48,724.54,170.85z M724.73,74.96c0-1.69,0.31-3.25,0.93-4.69c0.62-1.43,1.48-2.69,2.59-3.76
		c1.11-1.07,2.39-1.92,3.86-2.54c1.46-0.62,3.01-0.93,4.64-0.93c1.69,0,3.27,0.31,4.74,0.93c1.46,0.62,2.75,1.46,3.86,2.54
		c1.11,1.07,1.99,2.33,2.64,3.76c0.65,1.43,0.98,3,0.98,4.69s-0.33,3.27-0.98,4.74c-0.65,1.46-1.53,2.75-2.64,3.86
		s-2.39,1.99-3.86,2.64c-1.46,0.65-3.04,0.98-4.74,0.98c-1.63,0-3.17-0.33-4.64-0.98c-1.46-0.65-2.75-1.53-3.86-2.64
		c-1.11-1.11-1.97-2.39-2.59-3.86C725.04,78.23,724.73,76.65,724.73,74.96z M771.8,122.71c0-1.69,0.33-3.27,0.98-4.74
		c0.65-1.46,1.53-2.73,2.64-3.81c1.11-1.07,2.41-1.92,3.91-2.54s3.06-0.93,4.69-0.93c1.69,0,3.27,0.31,4.74,0.93
		c1.46,0.62,2.73,1.46,3.81,2.54s1.94,2.34,2.59,3.81c0.65,1.46,0.98,3.04,0.98,4.74c0,1.69-0.33,3.27-0.98,4.74
		c-0.65,1.46-1.51,2.73-2.59,3.81s-2.34,1.92-3.81,2.54c-1.46,0.62-3.04,0.93-4.74,0.93c-1.63,0-3.19-0.31-4.69-0.93
		s-2.8-1.46-3.91-2.54c-1.11-1.07-1.99-2.34-2.64-3.81C772.13,125.98,771.8,124.4,771.8,122.71z M772,74.96
		c0-1.69,0.33-3.25,0.98-4.69c0.65-1.43,1.51-2.69,2.59-3.76s2.36-1.92,3.86-2.54s3.06-0.93,4.69-0.93c1.69,0,3.29,0.31,4.79,0.93
		s2.78,1.46,3.86,2.54s1.92,2.33,2.54,3.76c0.62,1.43,0.93,3,0.93,4.69s-0.31,3.27-0.93,4.74c-0.62,1.46-1.46,2.75-2.54,3.86
		c-1.07,1.11-2.36,1.99-3.86,2.64c-1.5,0.65-3.09,0.98-4.79,0.98c-1.63,0-3.19-0.33-4.69-0.98c-1.5-0.65-2.78-1.53-3.86-2.64
		c-1.07-1.11-1.94-2.39-2.59-3.86C772.32,78.23,772,76.65,772,74.96z"/>
	<path class="st3" d="M861.45,74.96c0-1.69,0.31-3.25,0.93-4.69c0.62-1.43,1.48-2.69,2.59-3.76c1.11-1.07,2.39-1.92,3.86-2.54
		c1.46-0.62,3.01-0.93,4.64-0.93c1.69,0,3.27,0.31,4.74,0.93c1.46,0.62,2.75,1.46,3.86,2.54c1.11,1.07,1.99,2.33,2.64,3.76
		c0.65,1.43,0.98,3,0.98,4.69s-0.33,3.27-0.98,4.74c-0.65,1.46-1.53,2.75-2.64,3.86s-2.39,1.99-3.86,2.64
		c-1.46,0.65-3.04,0.98-4.74,0.98c-1.63,0-3.17-0.33-4.64-0.98c-1.46-0.65-2.75-1.53-3.86-2.64c-1.11-1.11-1.97-2.39-2.59-3.86
		C861.76,78.23,861.45,76.65,861.45,74.96z M861.45,123c0-1.69,0.31-3.27,0.93-4.74c0.62-1.46,1.48-2.73,2.59-3.81
		c1.11-1.07,2.39-1.92,3.86-2.54c1.46-0.62,3.01-0.93,4.64-0.93c1.69,0,3.27,0.31,4.74,0.93c1.46,0.62,2.75,1.46,3.86,2.54
		c1.11,1.07,1.99,2.34,2.64,3.81c0.65,1.46,0.98,3.04,0.98,4.74c0,1.69-0.33,3.27-0.98,4.74c-0.65,1.46-1.53,2.75-2.64,3.86
		s-2.39,1.97-3.86,2.59c-1.46,0.62-3.04,0.93-4.74,0.93c-1.63,0-3.17-0.31-4.64-0.93c-1.46-0.62-2.75-1.48-3.86-2.59
		s-1.97-2.39-2.59-3.86C861.76,126.27,861.45,124.7,861.45,123z M908.52,122.71c0-1.69,0.33-3.27,0.98-4.74
		c0.65-1.46,1.53-2.73,2.64-3.81c1.11-1.07,2.41-1.92,3.91-2.54s3.06-0.93,4.69-0.93c1.69,0,3.27,0.31,4.74,0.93
		c1.46,0.62,2.73,1.46,3.81,2.54s1.94,2.34,2.59,3.81c0.65,1.46,0.98,3.04,0.98,4.74c0,1.69-0.33,3.27-0.98,4.74
		c-0.65,1.46-1.51,2.73-2.59,3.81s-2.34,1.92-3.81,2.54c-1.46,0.62-3.04,0.93-4.74,0.93c-1.63,0-3.19-0.31-4.69-0.93
		s-2.8-1.46-3.91-2.54c-1.11-1.07-1.99-2.34-2.64-3.81C908.85,125.98,908.52,124.4,908.52,122.71z M908.72,74.96
		c0-1.69,0.33-3.25,0.98-4.69c0.65-1.43,1.51-2.69,2.59-3.76s2.36-1.92,3.86-2.54s3.06-0.93,4.69-0.93c1.69,0,3.29,0.31,4.79,0.93
		s2.78,1.46,3.86,2.54s1.92,2.33,2.54,3.76c0.62,1.43,0.93,3,0.93,4.69s-0.31,3.27-0.93,4.74c-0.62,1.46-1.46,2.75-2.54,3.86
		c-1.07,1.11-2.36,1.99-3.86,2.64c-1.5,0.65-3.09,0.98-4.79,0.98c-1.63,0-3.19-0.33-4.69-0.98c-1.5-0.65-2.78-1.53-3.86-2.64
		c-1.07-1.11-1.94-2.39-2.59-3.86C909.04,78.23,908.72,76.65,908.72,74.96z"/>
	<path class="st3" d="M998.17,74.96c0-1.69,0.31-3.25,0.93-4.69c0.62-1.43,1.48-2.69,2.59-3.76c1.11-1.07,2.39-1.92,3.86-2.54
		c1.46-0.62,3.01-0.93,4.64-0.93c1.69,0,3.27,0.31,4.74,0.93c1.46,0.62,2.75,1.46,3.86,2.54c1.11,1.07,1.99,2.33,2.64,3.76
		c0.65,1.43,0.98,3,0.98,4.69s-0.33,3.27-0.98,4.74c-0.65,1.46-1.53,2.75-2.64,3.86s-2.39,1.99-3.86,2.64
		c-1.46,0.65-3.04,0.98-4.74,0.98c-1.63,0-3.17-0.33-4.64-0.98c-1.46-0.65-2.75-1.53-3.86-2.64c-1.11-1.11-1.97-2.39-2.59-3.86
		C998.48,78.23,998.17,76.65,998.17,74.96z"/>
</g>
</svg>
